<?xml version="1.0" standalone="no"?>
<!DOCTYPE svg PUBLIC "-//W3C//DTD SVG 20010904//EN"
 "http://www.w3.org/TR/2001/REC-SVG-20010904/DTD/svg10.dtd">
<svg version="1.0" xmlns="http://www.w3.org/2000/svg"
 width="512.000000pt" height="512.000000pt" viewBox="0 0 512.000000 512.000000"
 preserveAspectRatio="xMidYMid meet">
<metadata>
Created by potrace 1.11, written by Peter Selinger 2001-2013
</metadata>
<g transform="translate(0.000000,512.000000) scale(0.100000,-0.100000)"
fill="#000000" stroke="none">
<path d="M2277 5015 c-293 -37 -564 -119 -823 -250 -748 -377 -1251 -1098
-1349 -1931 -72 -620 100 -1259 478 -1769 94 -128 344 -383 464 -473 481 -363
1029 -540 1603 -519 377 15 707 100 1041 268 642 324 1112 914 1283 1609 47
193 65 321 73 520 26 699 -246 1369 -758 1865 -370 359 -829 586 -1354 671
-138 22 -516 27 -658 9z m831 -480 c81 -6 113 -16 82 -27 -6 -2 -21 -30 -35
-63 -26 -64 -32 -139 -15 -209 7 -30 5 -44 -8 -64 -14 -22 -14 -25 0 -33 27
-15 100 -79 91 -80 -4 0 -17 -3 -28 -6 -31 -10 -471 -12 -565 -3 -47 4 -179
11 -295 14 -115 4 -226 11 -247 17 -48 12 -92 65 -112 132 -22 75 -20 90 11
127 22 27 25 35 15 51 -19 29 -14 61 13 102 18 26 34 37 53 38 282 15 858 17
1040 4z m219 -45 c54 -24 104 -97 102 -149 -2 -34 -2 -34 -6 -6 -6 40 -40 85
-76 100 -26 11 -35 10 -54 -2 -22 -15 -95 -14 -110 1 -9 9 27 56 50 66 33 13
48 12 94 -10z m35 -97 c8 -10 20 -33 26 -50 10 -30 9 -33 -8 -33 -17 0 -18 -3
-8 -25 6 -14 15 -25 20 -25 4 0 6 -10 4 -22 -3 -13 -5 -27 -5 -31 -1 -5 -5 -6
-10 -3 -5 4 -7 -3 -4 -14 8 -29 -75 -110 -111 -110 -15 0 -25 4 -21 10 3 5 0
7 -7 5 -8 -3 -21 8 -32 27 l-19 33 22 -23 c23 -23 46 -21 37 4 -3 8 1 14 9 14
8 0 15 5 15 10 0 13 -17 13 -25 0 -5 -8 -11 -8 -19 -1 -9 7 -19 6 -34 -5 -14
-9 -22 -11 -22 -4 0 6 -5 8 -11 5 -6 -4 -5 2 2 13 7 12 17 18 23 15 5 -4 7 1
3 10 -4 10 2 22 15 31 24 17 42 11 34 -10 -3 -7 -1 -16 4 -19 10 -6 14 7 11
33 -1 7 8 12 21 11 16 0 19 -2 8 -7 -20 -9 -22 -45 -4 -55 12 -7 13 -12 3 -23
-9 -11 -9 -18 -1 -26 9 -9 12 -6 12 13 0 19 2 21 10 9 5 -8 11 -12 14 -9 3 3
-3 15 -14 27 -24 25 -25 32 -5 32 8 0 15 4 15 10 0 5 -8 6 -17 3 -16 -6 -16
-5 -4 10 7 9 10 17 7 17 -4 0 -2 10 5 21 6 12 7 19 1 15 -27 -16 -31 100 -4
120 24 18 46 17 64 -3z m-112 -47 c0 -30 3 -61 6 -69 6 -17 -22 -25 -68 -18
-34 4 -42 27 -33 92 l7 49 44 0 44 0 0 -54z m176 -223 c-9 -150 -16 -207 -31
-266 -6 -21 -10 -25 -21 -17 -10 9 -11 6 -2 -18 9 -24 6 -44 -21 -128 -47
-144 -72 -198 -83 -182 -7 9 -8 6 -4 -11 6 -27 -39 -125 -53 -116 -5 3 -7 -4
-4 -15 4 -15 0 -20 -15 -20 -11 0 -30 -8 -43 -19 -21 -16 -22 -22 -11 -45 7
-17 8 -34 2 -48 -14 -37 -77 -118 -84 -111 -4 4 -4 1 -1 -8 3 -8 -12 -37 -36
-69 -22 -30 -52 -76 -65 -102 -13 -27 -28 -48 -32 -48 -4 0 -18 -34 -31 -75
-14 -41 -30 -74 -36 -72 -6 1 -10 -2 -10 -8 0 -5 3 -9 6 -8 4 1 5 -7 2 -17 -7
-25 -12 -25 -30 -2 -8 9 -12 11 -8 5 3 -7 1 -22 -5 -33 -9 -16 -8 -20 4 -20 9
0 14 6 12 13 -1 6 -1 9 1 4 3 -4 8 -5 13 -2 4 3 6 -3 4 -12 -8 -37 -35 -169
-39 -188 -2 -11 -6 -29 -8 -40 -3 -11 -10 -54 -16 -95 -7 -41 -15 -82 -18 -90
-8 -20 -6 -403 2 -454 21 -130 69 -263 126 -348 41 -60 47 -74 27 -62 -7 4 -8
3 -4 -4 4 -6 12 -9 19 -6 19 7 72 -52 56 -62 -8 -4 -15 -2 -17 5 -3 8 -8 7
-17 -5 -10 -14 -29 -18 -84 -20 -47 -1 -69 2 -64 9 4 7 -5 8 -25 4 -25 -5 -32
-3 -32 9 0 11 5 14 17 10 10 -4 14 -3 9 1 -4 4 -18 8 -29 8 -13 0 -22 6 -22
15 -1 16 -24 15 -40 -2 -7 -8 -6 -9 2 -4 7 4 23 -3 35 -14 l23 -22 -93 4 c-67
2 -95 7 -102 18 -5 8 -7 17 -4 21 2 4 0 10 -5 14 -6 3 -8 -6 -5 -21 4 -20 1
-25 -9 -21 -8 3 -40 8 -73 12 -32 4 -63 10 -69 13 -5 3 -29 6 -53 7 -26 1 -47
7 -53 15 -5 10 -9 11 -9 3 0 -9 -10 -9 -42 1 -68 21 -99 38 -94 52 3 8 0 16
-6 20 -6 4 -8 3 -4 -4 3 -6 1 -14 -5 -18 -6 -3 -15 -1 -19 6 -4 6 -11 11 -16
11 -17 -2 -74 21 -74 29 0 4 -7 11 -16 14 -10 4 -13 2 -8 -6 5 -8 2 -9 -10 -5
-10 4 -24 7 -32 7 -9 0 -12 5 -9 10 3 6 -1 10 -10 10 -9 0 -13 -5 -9 -11 10
-17 -28 5 -48 28 -25 28 -79 134 -72 144 3 5 1 9 -4 9 -16 0 -23 30 -12 50 8
16 7 18 -4 14 -19 -7 -33 53 -16 69 10 9 11 7 7 -11 -4 -15 -1 -22 6 -19 7 3
11 10 9 16 -1 6 2 11 8 11 5 0 10 4 10 10 0 5 -6 7 -14 4 -21 -8 -30 16 -13
34 15 14 17 14 23 -1 3 -9 14 -17 23 -17 14 0 14 2 1 10 -8 5 -15 15 -15 22 0
7 -6 13 -13 13 -7 0 -17 7 -23 15 -9 12 -10 11 -4 -5 5 -16 4 -18 -6 -7 -20
19 -31 14 -19 -7 12 -23 14 -48 3 -37 -5 4 -8 11 -8 14 -1 4 -4 16 -7 27 -4
11 -9 37 -12 57 -5 30 -2 39 13 47 10 6 22 7 26 3 5 -4 5 -1 1 5 -4 7 -2 21 3
30 9 16 10 16 11 -4 0 -12 4 -24 9 -27 5 -4 7 4 3 16 -4 17 -2 20 13 14 15 -5
16 -4 5 9 -7 8 -16 12 -21 10 -10 -7 -65 53 -61 66 1 5 -3 9 -8 9 -9 0 -9 106
-1 298 1 16 5 21 14 16 9 -6 9 -4 -1 8 -7 9 -11 29 -8 45 2 15 5 38 5 51 1 12
7 22 16 22 8 0 15 5 15 10 0 6 -5 10 -11 10 -17 0 -5 92 29 231 32 129 38 143
55 132 8 -5 8 -2 -1 9 -10 12 -9 18 3 28 12 10 15 10 15 0 0 -8 3 -11 6 -8 3
3 0 15 -7 25 -9 16 -7 27 10 61 12 23 26 42 32 42 6 0 7 -5 3 -12 -4 -7 -3 -8
4 -4 6 4 9 13 6 21 -4 8 -11 12 -17 8 -6 -3 -7 -1 -3 6 4 6 12 9 17 6 5 -4 9
-1 9 4 0 6 -4 11 -10 11 -5 0 -7 7 -4 15 4 8 11 12 17 8 6 -3 7 -1 3 5 -11 18
42 112 63 112 10 0 30 11 44 24 19 18 28 21 37 12 6 -6 0 12 -15 39 -20 37
-25 59 -21 85 6 38 50 177 71 225 42 97 98 282 107 355 3 28 -15 27 263 15 50
-2 105 -4 123 -4 42 0 59 -10 41 -23 -11 -8 -11 -9 1 -5 8 2 14 10 12 17 -2
10 31 11 155 5 87 -5 166 -8 176 -7 11 0 15 -4 11 -11 -5 -8 -3 -8 7 1 8 8 45
12 105 12 127 0 211 26 269 85 26 25 49 60 56 84 7 23 14 41 17 41 2 0 2 -48
-2 -107z m-186 6 c0 -6 -4 -7 -10 -4 -5 3 -10 11 -10 16 0 6 5 7 10 4 6 -3 10
-11 10 -16z m-194 -2543 c-3 -16 -6 -36 -6 -45 0 -14 -13 -17 -79 -20 l-80 -2
-21 41 c-11 22 -19 44 -16 48 2 4 50 7 106 7 l101 0 -5 -29z m78 20 c-10 -8
-16 -18 -12 -22 4 -4 14 -1 23 6 9 8 15 9 15 2 0 -6 -6 -15 -14 -19 -20 -12
-37 -49 -30 -67 5 -12 2 -15 -10 -10 -9 3 -13 10 -10 15 2 5 0 18 -7 30 -8 15
-8 19 0 15 6 -4 11 0 11 9 0 9 -4 13 -10 10 -16 -10 -12 7 7 27 9 10 25 18 36
18 20 0 21 0 1 -14z m28 -114 c-18 -16 -19 -21 -8 -43 11 -20 10 -28 -6 -51
-23 -33 -34 -35 -41 -8 -3 11 -1 20 5 20 6 0 8 9 5 21 -4 15 -2 19 9 15 8 -3
14 1 14 9 0 8 -4 15 -10 15 -15 0 23 38 39 39 9 1 7 -5 -7 -17z m-192 4 c0 -2
-11 -6 -25 -8 -14 -3 -25 -1 -25 3 0 5 11 9 25 9 14 0 25 -2 25 -4z m74 -28
c-2 -17 -6 -33 -10 -37 -4 -3 -4 7 -2 23 5 26 4 28 -22 23 -17 -4 -27 -2 -27
7 0 7 14 13 33 13 30 1 32 -1 28 -29z m35 5 c0 -5 -4 -17 -9 -28 -8 -18 -9
-17 -9 8 -1 15 4 27 9 27 6 0 10 -3 9 -7z m-95 -25 c-5 -8 -2 -9 9 -5 10 3 17
2 17 -3 0 -12 -27 -13 -34 -1 -3 4 -3 11 1 15 10 10 15 7 7 -6z m116 -73 c0
-2 -7 -2 -15 1 -10 4 -15 0 -15 -10 0 -14 -3 -14 -13 -4 -19 18 2 39 26 27 9
-6 17 -12 17 -14z m-31 -234 c12 -8 7 -27 -32 -108 -48 -102 -117 -277 -117
-295 0 -6 13 7 29 29 39 54 91 93 134 100 29 4 37 1 56 -23 18 -22 21 -36 16
-64 -10 -51 -53 -126 -96 -165 -39 -35 -103 -55 -120 -38 -13 13 0 45 15 40
38 -15 108 49 127 115 13 48 3 68 -33 68 -40 0 -95 -57 -135 -140 -23 -50 -31
-59 -48 -54 -30 10 -31 11 -13 79 35 133 175 465 196 465 4 0 13 -4 21 -9z
m-799 -91 l0 -30 42 26 c61 39 107 42 137 10 21 -23 23 -32 18 -85 -13 -147
-175 -330 -293 -331 -27 0 -35 -8 -71 -67 -70 -119 -129 -126 -127 -17 2 93
87 257 194 372 28 30 40 54 41 75 2 30 4 52 8 70 0 4 12 7 26 7 21 0 25 -5 25
-30z m527 -178 c10 -6 5 -29 -22 -95 -19 -48 -35 -96 -35 -107 0 -28 27 -36
51 -14 27 24 44 6 23 -24 -21 -30 -71 -54 -95 -47 -25 8 -39 42 -32 79 5 26 3
25 -44 -22 -57 -57 -96 -71 -124 -46 -23 21 -24 54 -3 125 25 82 61 149 83
149 28 0 31 -9 11 -43 -30 -52 -52 -138 -39 -154 34 -40 106 22 161 136 33 69
42 78 65 63z"/>
<path d="M2896 4441 c-4 -5 -2 -12 3 -15 5 -4 12 -2 15 3 4 5 2 12 -3 15 -5 4
-12 2 -15 -3z"/>
<path d="M2946 4401 c-4 -5 -2 -12 3 -15 5 -4 12 -2 15 3 4 5 2 12 -3 15 -5 4
-12 2 -15 -3z"/>
<path d="M2173 4184 c-25 -11 -12 -22 22 -21 20 1 34 6 32 11 -4 12 -35 18
-54 10z"/>
<path d="M3345 4460 c3 -5 11 -10 16 -10 6 0 7 5 4 10 -3 6 -11 10 -16 10 -6
0 -7 -4 -4 -10z"/>
<path d="M3296 4353 c-6 -14 -5 -15 5 -6 7 7 10 15 7 18 -3 3 -9 -2 -12 -12z"/>
<path d="M3350 4271 c0 -6 4 -13 10 -16 6 -3 7 1 4 9 -7 18 -14 21 -14 7z"/>
<path d="M3340 4189 c0 -5 5 -7 10 -4 6 3 10 8 10 11 0 2 -4 4 -10 4 -5 0 -10
-5 -10 -11z"/>
<path d="M3270 4100 c0 -5 4 -10 9 -10 6 0 13 5 16 10 3 6 -1 10 -9 10 -9 0
-16 -4 -16 -10z"/>
<path d="M2592 3994 c10 -10 20 -16 22 -13 3 3 -5 11 -17 18 -21 13 -21 12 -5
-5z"/>
<path d="M3325 3980 c3 -5 8 -10 11 -10 2 0 4 5 4 10 0 6 -5 10 -11 10 -5 0
-7 -4 -4 -10z"/>
<path d="M3006 3937 c3 -10 9 -15 12 -12 3 3 0 11 -7 18 -10 9 -11 8 -5 -6z"/>
<path d="M2870 3915 c0 -8 4 -15 10 -15 5 0 7 7 4 15 -4 8 -8 15 -10 15 -2 0
-4 -7 -4 -15z"/>
<path d="M3140 3899 c0 -5 5 -7 10 -4 6 3 10 8 10 11 0 2 -4 4 -10 4 -5 0 -10
-5 -10 -11z"/>
<path d="M3303 3895 c0 -8 4 -12 9 -9 5 3 6 10 3 15 -9 13 -12 11 -12 -6z"/>
<path d="M2405 3879 c-4 -6 -13 -8 -21 -5 -8 3 -13 0 -11 -7 1 -7 -4 -11 -10
-9 -17 3 -16 -6 1 -24 18 -17 29 -18 23 -1 -2 6 5 22 16 35 11 12 18 22 14 22
-3 0 -9 -5 -12 -11z"/>
<path d="M3070 3886 c0 -2 7 -7 16 -10 8 -3 12 -2 9 4 -6 10 -25 14 -25 6z"/>
<path d="M3236 3877 c3 -10 9 -15 12 -12 3 3 0 11 -7 18 -10 9 -11 8 -5 -6z"/>
<path d="M3151 3873 c-1 -17 16 -25 25 -12 4 7 3 9 -4 5 -5 -3 -13 0 -15 6 -4
9 -6 10 -6 1z"/>
<path d="M2540 3866 c0 -2 7 -7 16 -10 8 -3 12 -2 9 4 -6 10 -25 14 -25 6z"/>
<path d="M2730 3860 c0 -5 5 -10 11 -10 5 0 7 5 4 10 -3 6 -8 10 -11 10 -2 0
-4 -4 -4 -10z"/>
<path d="M2950 3859 c0 -5 5 -7 10 -4 6 3 10 8 10 11 0 2 -4 4 -10 4 -5 0 -10
-5 -10 -11z"/>
<path d="M2310 3849 c0 -5 5 -7 10 -4 6 3 10 8 10 11 0 2 -4 4 -10 4 -5 0 -10
-5 -10 -11z"/>
<path d="M3077 3839 c12 -12 25 -20 28 -17 3 3 -7 13 -22 23 l-28 17 22 -23z"/>
<path d="M2533 3835 c0 -8 4 -12 9 -9 5 3 6 10 3 15 -9 13 -12 11 -12 -6z"/>
<path d="M2908 3818 c2 -10 6 -18 7 -18 1 0 5 8 7 18 3 11 0 19 -7 19 -7 0
-10 -8 -7 -19z"/>
<path d="M3220 3832 c0 -5 12 -14 27 -21 28 -13 28 -13 9 8 -20 22 -36 27 -36
13z"/>
<path d="M2766 3814 c-8 -22 -4 -25 11 -9 7 8 9 16 4 19 -5 3 -12 -1 -15 -10z"/>
<path d="M3121 3816 c-9 -11 -7 -15 9 -19 11 -3 18 -1 14 4 -3 5 2 9 11 9 9 0
13 5 10 10 -9 14 -31 12 -44 -4z"/>
<path d="M3300 3809 c14 -12 24 -25 23 -30 -2 -5 5 -5 14 -2 11 4 13 8 5 11
-7 2 -12 11 -12 20 0 8 -3 12 -6 9 -4 -3 -16 -2 -28 4 -18 8 -17 7 4 -12z"/>
<path d="M2339 3793 c-13 -16 -12 -17 4 -4 9 7 17 15 17 17 0 8 -8 3 -21 -13z"/>
<path d="M2874 3792 c4 -3 14 -7 22 -8 9 -1 13 0 10 4 -4 3 -14 7 -22 8 -9 1
-13 0 -10 -4z"/>
<path d="M2540 3786 c0 -2 7 -9 15 -16 9 -7 15 -8 15 -2 0 5 -7 12 -15 16 -8
3 -15 4 -15 2z"/>
<path d="M3144 3768 c-10 -12 -13 -18 -6 -14 7 4 12 2 12 -5 0 -7 7 -4 15 7
28 38 11 48 -21 12z"/>
<path d="M3260 3776 c0 -9 -10 -12 -31 -10 -19 2 -28 0 -24 -7 4 -5 15 -7 25
-4 11 4 22 0 28 -11 7 -12 9 -9 10 15 0 17 -1 31 -4 31 -2 0 -4 -6 -4 -14z"/>
<path d="M3043 3743 c-3 -8 -1 -19 5 -25 8 -8 9 -4 5 12 -4 15 -2 21 5 16 6
-3 13 -3 16 2 3 5 -2 9 -10 9 -9 0 -18 -7 -21 -14z"/>
<path d="M2765 3740 c-3 -6 1 -7 9 -4 18 7 21 14 7 14 -6 0 -13 -4 -16 -10z"/>
<path d="M2730 3730 c0 -5 5 -10 11 -10 5 0 7 5 4 10 -3 6 -8 10 -11 10 -2 0
-4 -4 -4 -10z"/>
<path d="M2460 3716 c0 -8 4 -17 9 -20 5 -4 7 3 4 14 -6 23 -13 26 -13 6z"/>
<path d="M3310 3720 c0 -5 5 -10 10 -10 6 0 10 5 10 10 0 6 -4 10 -10 10 -5 0
-10 -4 -10 -10z"/>
<path d="M2665 3710 c-3 -6 1 -7 9 -4 18 7 21 14 7 14 -6 0 -13 -4 -16 -10z"/>
<path d="M3186 3712 c-3 -5 1 -9 9 -9 8 0 12 4 9 9 -3 4 -7 8 -9 8 -2 0 -6 -4
-9 -8z"/>
<path d="M3256 3705 c4 -8 11 -15 16 -15 6 0 5 6 -2 15 -7 8 -14 15 -16 15 -2
0 -1 -7 2 -15z"/>
<path d="M2573 3702 c-8 -5 -8 -12 2 -25 12 -17 13 -16 11 7 0 15 -1 26 -1 26
0 0 -5 -4 -12 -8z"/>
<path d="M2604 3686 c3 -10 1 -26 -6 -35 -8 -10 -4 -9 10 3 12 11 19 22 15 25
-5 4 -12 11 -17 16 -6 6 -7 3 -2 -9z"/>
<path d="M2710 3696 c0 -2 9 -6 20 -9 11 -3 18 -1 14 4 -5 9 -34 13 -34 5z"/>
<path d="M2655 3679 c-18 -9 -18 -9 3 -5 17 3 22 -1 23 -17 1 -19 2 -19 6 -3
7 25 -8 36 -32 25z"/>
<path d="M3255 3670 c-16 -7 -17 -9 -3 -9 9 -1 20 4 23 9 7 11 7 11 -20 0z"/>
<path d="M3155 3660 c3 -5 8 -10 11 -10 2 0 4 5 4 10 0 6 -5 10 -11 10 -5 0
-7 -4 -4 -10z"/>
<path d="M2655 3650 c3 -5 8 -10 11 -10 2 0 4 5 4 10 0 6 -5 10 -11 10 -5 0
-7 -4 -4 -10z"/>
<path d="M2830 3634 c0 -8 5 -12 10 -9 6 4 8 11 5 16 -9 14 -15 11 -15 -7z"/>
<path d="M3086 3635 c-9 -26 -7 -32 5 -12 6 10 9 21 6 23 -2 3 -7 -2 -11 -11z"/>
<path d="M2734 3626 c3 -24 18 -38 28 -28 6 6 16 9 22 8 6 -2 8 -1 4 1 -5 3
-8 10 -8 18 0 7 -11 13 -24 13 -13 0 -23 -6 -22 -12z m33 -12 c-3 -3 -12 -4
-19 -1 -8 3 -5 6 6 6 11 1 17 -2 13 -5z"/>
<path d="M2580 3626 c0 -2 7 -7 16 -10 8 -3 12 -2 9 4 -6 10 -25 14 -25 6z"/>
<path d="M2829 3593 c-13 -16 -12 -17 4 -4 16 13 21 21 13 21 -2 0 -10 -8 -17
-17z"/>
<path d="M2932 3584 c10 -10 20 -15 24 -12 3 4 -5 12 -18 18 -22 12 -22 12 -6
-6z"/>
<path d="M2737 3579 c7 -7 15 -10 18 -7 3 3 -2 9 -12 12 -14 6 -15 5 -6 -5z"/>
<path d="M2670 3547 c-12 -21 -12 -21 6 -7 10 8 20 15 22 16 2 1 -1 4 -5 7 -5
3 -15 -4 -23 -16z"/>
<path d="M3201 3544 c0 -11 3 -14 6 -6 3 7 2 16 -1 19 -3 4 -6 -2 -5 -13z"/>
<path d="M2616 3533 c-6 -14 -5 -15 5 -6 7 7 10 15 7 18 -3 3 -9 -2 -12 -12z"/>
<path d="M2755 3509 c-12 -18 3 -22 20 -5 14 14 14 16 1 16 -8 0 -18 -5 -21
-11z"/>
<path d="M2840 3509 c0 -5 -4 -7 -10 -4 -14 9 -12 -1 3 -13 10 -8 13 -6 14 9
1 10 0 19 -3 19 -2 0 -4 -5 -4 -11z"/>
<path d="M2850 3462 c0 -10 21 -32 32 -32 16 0 8 19 -12 30 -11 6 -20 7 -20 2z"/>
<path d="M2906 3451 c-4 -7 -1 -8 8 -5 9 3 16 1 16 -6 0 -6 4 -9 9 -5 5 3 12
1 16 -5 4 -6 12 -7 22 -1 12 6 22 3 36 -13 l19 -21 -15 25 c-8 14 -25 26 -38
27 -13 0 -34 4 -45 8 -12 4 -25 2 -28 -4z"/>
<path d="M2450 3390 c20 -13 33 -13 25 0 -3 6 -14 10 -23 10 -15 0 -15 -2 -2
-10z"/>
<path d="M2100 3379 c0 -5 5 -7 10 -4 6 3 10 8 10 11 0 2 -4 4 -10 4 -5 0 -10
-5 -10 -11z"/>
<path d="M2348 3363 c7 -3 16 -2 19 1 4 3 -2 6 -13 5 -11 0 -14 -3 -6 -6z"/>
<path d="M2301 3334 c0 -11 3 -14 6 -6 3 7 2 16 -1 19 -3 4 -6 -2 -5 -13z"/>
<path d="M2650 3326 c0 -2 7 -7 16 -10 8 -3 12 -2 9 4 -6 10 -25 14 -25 6z"/>
<path d="M2660 3290 c0 -6 7 -10 15 -10 8 0 15 2 15 4 0 2 -7 6 -15 10 -8 3
-15 1 -15 -4z"/>
<path d="M2516 3282 c-2 -4 2 -15 9 -25 12 -17 13 -16 11 7 -1 25 -10 34 -20
18z"/>
<path d="M2765 3260 c3 -5 8 -10 11 -10 2 0 4 5 4 10 0 6 -5 10 -11 10 -5 0
-7 -4 -4 -10z"/>
<path d="M2060 3250 c13 -9 13 -11 0 -20 -8 -5 -10 -10 -4 -10 6 0 17 6 23 14
9 11 8 15 -5 20 -24 9 -31 7 -14 -4z"/>
<path d="M2181 3244 c0 -11 3 -14 6 -6 3 7 2 16 -1 19 -3 4 -6 -2 -5 -13z"/>
<path d="M2665 3250 c-3 -5 -1 -10 4 -10 6 0 11 5 11 10 0 6 -2 10 -4 10 -3 0
-8 -4 -11 -10z"/>
<path d="M1991 3224 c0 -11 3 -14 6 -6 3 7 2 16 -1 19 -3 4 -6 -2 -5 -13z"/>
<path d="M2310 3231 c0 -6 4 -13 10 -16 6 -3 7 1 4 9 -7 18 -14 21 -14 7z"/>
<path d="M2781 3223 c7 -12 15 -20 18 -17 3 2 -3 12 -13 22 -17 16 -18 16 -5
-5z"/>
<path d="M2015 3221 c-4 -8 -2 -16 5 -21 10 -6 8 -9 -6 -13 -16 -4 -16 -5 4
-6 23 -1 25 3 13 33 -6 15 -10 16 -16 7z"/>
<path d="M2289 3216 c13 -16 51 -41 51 -33 0 2 -15 14 -32 27 -21 15 -28 17
-19 6z"/>
<path d="M2123 3205 c0 -8 4 -15 9 -15 4 0 8 7 8 15 0 8 -4 15 -8 15 -5 0 -9
-7 -9 -15z"/>
<path d="M2766 3197 c3 -10 9 -15 12 -12 3 3 0 11 -7 18 -10 9 -11 8 -5 -6z"/>
<path d="M1967 3185 c-4 -8 -3 -16 1 -19 4 -3 9 4 9 15 2 23 -3 25 -10 4z"/>
<path d="M2380 3179 c0 -5 5 -7 10 -4 6 3 10 8 10 11 0 2 -4 4 -10 4 -5 0 -10
-5 -10 -11z"/>
<path d="M2216 3154 c-3 -8 -2 -12 3 -9 5 3 11 -3 13 -12 3 -15 5 -15 10 -3 3
8 0 21 -7 27 -10 10 -14 9 -19 -3z"/>
<path d="M2125 3150 c-3 -5 1 -10 10 -10 9 0 13 5 10 10 -3 6 -8 10 -10 10 -2
0 -7 -4 -10 -10z"/>
<path d="M2886 3143 c-6 -14 -5 -15 5 -6 7 7 10 15 7 18 -3 3 -9 -2 -12 -12z"/>
<path d="M2450 3140 c-13 -8 -13 -10 2 -10 9 0 20 5 23 10 8 13 -5 13 -25 0z"/>
<path d="M2576 3143 c5 -5 12 -12 16 -18 4 -6 8 -2 8 8 0 9 -7 17 -17 17 -9 0
-12 -3 -7 -7z"/>
<path d="M2095 3129 c-4 -6 -5 -12 -2 -15 2 -3 7 2 10 11 7 17 1 20 -8 4z"/>
<path d="M2274 3131 c7 -11 46 -35 46 -28 0 3 -12 12 -26 22 -15 9 -23 12 -20
6z"/>
<path d="M2635 3119 c-4 -6 -5 -12 -2 -15 2 -3 7 2 10 11 7 17 1 20 -8 4z"/>
<path d="M2186 3102 c-2 -4 4 -8 14 -8 10 0 16 4 14 8 -3 4 -9 8 -14 8 -5 0
-11 -4 -14 -8z"/>
<path d="M1920 3090 c-12 -8 -10 -10 8 -10 13 0 20 4 17 10 -7 12 -6 12 -25 0z"/>
<path d="M1982 3075 c-1 -14 3 -25 8 -25 5 0 7 7 4 15 -5 12 -2 13 12 8 18 -6
18 -6 2 10 -22 22 -23 22 -26 -8z"/>
<path d="M2230 3081 c0 -6 4 -13 10 -16 6 -3 7 1 4 9 -7 18 -14 21 -14 7z"/>
<path d="M2385 3080 c-4 -6 -11 -8 -16 -5 -5 4 -9 1 -9 -4 0 -16 16 -13 30 4
7 8 10 15 7 15 -3 0 -9 -5 -12 -10z"/>
<path d="M2630 3080 c-9 -6 -10 -10 -3 -10 6 0 15 5 18 10 8 12 4 12 -15 0z"/>
<path d="M2045 3070 c-19 -7 -19 -8 -2 -15 17 -7 17 -8 0 -21 -10 -7 -13 -13
-8 -14 19 0 31 15 31 38 0 12 0 22 -1 21 0 0 -9 -4 -20 -9z"/>
<path d="M2120 3076 c0 -3 9 -10 20 -16 11 -6 20 -8 20 -6 0 3 -9 10 -20 16
-11 6 -20 8 -20 6z"/>
<path d="M2696 3063 c-6 -14 -5 -15 5 -6 7 7 10 15 7 18 -3 3 -9 -2 -12 -12z"/>
<path d="M2840 3060 c0 -5 5 -10 10 -10 6 0 10 5 10 10 0 6 -4 10 -10 10 -5 0
-10 -4 -10 -10z"/>
<path d="M2980 3060 c0 -5 5 -10 11 -10 5 0 7 5 4 10 -3 6 -8 10 -11 10 -2 0
-4 -4 -4 -10z"/>
<path d="M1926 3051 c-3 -5 1 -14 8 -20 10 -9 16 -9 21 -1 4 6 1 9 -7 8 -7 -2
-12 3 -10 10 2 14 -4 16 -12 3z"/>
<path d="M2765 3040 c-3 -6 1 -7 9 -4 18 7 21 14 7 14 -6 0 -13 -4 -16 -10z"/>
<path d="M2923 3035 c-3 -9 -3 -18 -1 -21 3 -3 8 4 11 16 6 23 -1 27 -10 5z"/>
<path d="M1985 3030 c-3 -5 -1 -10 4 -10 6 0 11 5 11 10 0 6 -2 10 -4 10 -3 0
-8 -4 -11 -10z"/>
<path d="M2560 3036 c0 -2 7 -7 16 -10 8 -3 12 -2 9 4 -6 10 -25 14 -25 6z"/>
<path d="M2620 3003 c0 -14 3 -23 7 -19 10 10 11 46 1 46 -4 0 -8 -12 -8 -27z"/>
<path d="M1845 3010 c-3 -5 -1 -10 4 -10 6 0 11 5 11 10 0 6 -2 10 -4 10 -3 0
-8 -4 -11 -10z"/>
<path d="M2380 3005 c0 -8 4 -15 10 -15 5 0 7 7 4 15 -4 8 -8 15 -10 15 -2 0
-4 -7 -4 -15z"/>
<path d="M2773 3005 c0 -8 4 -12 9 -9 4 3 8 9 8 15 0 5 -4 9 -8 9 -5 0 -9 -7
-9 -15z"/>
<path d="M2146 3002 c-3 -4 4 -9 15 -9 23 -2 25 3 4 10 -8 4 -16 3 -19 -1z"/>
<path d="M2330 3000 c-9 -6 -10 -10 -3 -10 6 0 15 5 18 10 8 12 4 12 -15 0z"/>
<path d="M1975 2980 c-3 -6 1 -7 9 -4 18 7 21 14 7 14 -6 0 -13 -4 -16 -10z"/>
<path d="M2076 2975 c4 -8 10 -15 15 -15 4 0 7 -6 5 -12 -1 -7 -1 -10 1 -5 3
4 9 5 13 2 5 -3 12 0 16 6 4 7 3 9 -3 6 -6 -4 -17 1 -24 10 -12 15 -12 16 4
10 11 -4 16 -3 12 3 -10 17 -45 12 -39 -5z"/>
<path d="M2197 2983 c-12 -12 -7 -23 11 -23 14 0 14 2 3 9 -11 7 -10 10 5 14
14 3 15 5 3 6 -9 0 -19 -2 -22 -6z"/>
<path d="M2350 2980 c0 -5 5 -10 11 -10 5 0 7 5 4 10 -3 6 -8 10 -11 10 -2 0
-4 -4 -4 -10z"/>
<path d="M2675 2979 c-4 -6 -5 -12 -2 -15 2 -3 7 2 10 11 7 17 1 20 -8 4z"/>
<path d="M2043 2965 c0 -8 4 -15 9 -15 4 0 8 4 8 9 0 6 -4 12 -8 15 -5 3 -9
-1 -9 -9z"/>
<path d="M1980 2957 c0 -5 9 -20 20 -34 11 -14 20 -22 20 -17 -1 12 -39 61
-40 51z"/>
<path d="M2518 2953 c7 -3 16 -2 19 1 4 3 -2 6 -13 5 -11 0 -14 -3 -6 -6z"/>
<path d="M2766 2946 c3 -8 12 -12 21 -9 12 5 12 7 1 14 -20 13 -28 11 -22 -5z"/>
<path d="M2853 2938 c-2 -18 0 -20 7 -8 12 18 13 30 2 30 -4 0 -9 -10 -9 -22z"/>
<path d="M2245 2940 c-3 -5 -1 -10 4 -10 6 0 11 5 11 10 0 6 -2 10 -4 10 -3 0
-8 -4 -11 -10z"/>
<path d="M2633 2929 c-2 -23 3 -25 10 -4 4 8 3 16 -1 19 -4 3 -9 -4 -9 -15z"/>
<path d="M2692 2928 c6 -13 11 -34 10 -48 l-1 -25 8 25 c7 22 -11 70 -26 70
-2 0 2 -10 9 -22z"/>
<path d="M1910 2925 c-30 -17 -44 -19 -35 -5 9 15 -1 12 -14 -4 -10 -12 -8
-14 11 -12 24 3 68 23 68 31 0 7 -2 6 -30 -10z"/>
<path d="M2178 2933 c7 -3 16 -2 19 1 4 3 -2 6 -13 5 -11 0 -14 -3 -6 -6z"/>
<path d="M2270 2925 c0 -5 5 -17 10 -25 5 -8 10 -10 10 -5 0 6 -5 17 -10 25
-5 8 -10 11 -10 5z"/>
<path d="M2560 2910 c6 -11 13 -20 16 -20 2 0 0 9 -6 20 -6 11 -13 20 -16 20
-2 0 0 -9 6 -20z"/>
<path d="M2097 2909 c7 -7 15 -10 18 -7 3 3 -2 9 -12 12 -14 6 -15 5 -6 -5z"/>
<path d="M2768 2903 c7 -3 16 -2 19 1 4 3 -2 6 -13 5 -11 0 -14 -3 -6 -6z"/>
<path d="M2801 2899 c-1 -23 -28 -44 -34 -27 -2 7 -7 11 -9 8 -3 -3 2 -17 11
-31 l16 -26 16 21 c10 14 13 29 8 46 -4 14 -7 18 -8 9z m-9 -51 c-7 -7 -12 -8
-12 -2 0 6 3 14 7 17 3 4 9 5 12 2 2 -3 -1 -11 -7 -17z"/>
<path d="M2879 2893 c-13 -16 -12 -17 4 -4 16 13 21 21 13 21 -2 0 -10 -8 -17
-17z"/>
<path d="M2440 2889 c0 -5 5 -7 10 -4 6 3 10 8 10 11 0 2 -4 4 -10 4 -5 0 -10
-5 -10 -11z"/>
<path d="M2245 2881 c-3 -5 -1 -12 4 -15 5 -3 11 1 15 9 6 16 -9 21 -19 6z"/>
<path d="M2590 2881 c0 -5 7 -12 16 -15 14 -5 15 -4 4 9 -14 17 -20 19 -20 6z"/>
<path d="M2650 2868 c0 -19 2 -20 10 -8 13 19 13 30 0 30 -5 0 -10 -10 -10
-22z"/>
<path d="M2061 2864 c0 -11 3 -14 6 -6 3 7 2 16 -1 19 -3 4 -6 -2 -5 -13z"/>
<path d="M2359 2875 c-4 -5 -4 -18 0 -27 4 -13 10 -15 21 -8 9 6 10 10 3 10
-6 0 -13 8 -15 18 -2 9 -6 13 -9 7z"/>
<path d="M2415 2870 c-3 -5 -1 -10 4 -10 6 0 11 5 11 10 0 6 -2 10 -4 10 -3 0
-8 -4 -11 -10z"/>
<path d="M2523 2864 c0 -8 6 -14 14 -14 7 0 13 4 13 9 0 5 -6 11 -13 14 -8 3
-14 -1 -14 -9z"/>
<path d="M2086 2853 c-6 -14 -5 -15 5 -6 7 7 10 15 7 18 -3 3 -9 -2 -12 -12z"/>
<path d="M2280 2859 c0 -5 5 -7 10 -4 6 3 10 8 10 11 0 2 -4 4 -10 4 -5 0 -10
-5 -10 -11z"/>
<path d="M2445 2849 c-4 -6 -5 -12 -2 -15 2 -3 7 2 10 11 7 17 1 20 -8 4z"/>
<path d="M2716 2844 c-6 -15 -4 -15 11 -3 10 7 20 15 22 16 2 2 -3 3 -11 3 -9
0 -19 -7 -22 -16z"/>
<path d="M2234 2838 c2 -7 10 -12 20 -10 10 2 16 -4 16 -15 0 -15 2 -16 10 -3
10 16 -13 36 -29 25 -5 -3 -12 0 -14 5 -3 6 -4 5 -3 -2z"/>
<path d="M2825 2840 c-3 -5 0 -10 7 -10 7 0 -3 -8 -22 -18 -18 -11 -36 -25
-39 -33 -3 -9 1 -8 13 3 9 10 23 15 30 12 14 -5 49 40 39 50 -9 9 -21 7 -28
-4z"/>
<path d="M1783 2799 c-2 -23 3 -25 10 -4 4 8 3 16 -1 19 -4 3 -9 -4 -9 -15z"/>
<path d="M1826 2804 c-5 -14 -4 -15 9 -4 17 14 19 20 6 20 -5 0 -12 -7 -15
-16z"/>
<path d="M2530 2804 c0 -8 5 -12 10 -9 6 4 8 11 5 16 -9 14 -15 11 -15 -7z"/>
<path d="M2045 2790 c-3 -5 -1 -10 4 -10 6 0 11 5 11 10 0 6 -2 10 -4 10 -3 0
-8 -4 -11 -10z"/>
<path d="M2417 2793 c-13 -12 -7 -19 18 -21 14 -1 25 3 25 9 0 5 -5 7 -11 3
-6 -3 -14 -1 -18 5 -4 6 -10 8 -14 4z"/>
<path d="M2530 2758 c-12 -22 -12 -22 6 -6 10 10 15 20 12 24 -4 3 -12 -5 -18
-18z"/>
<path d="M2800 2760 c0 -5 4 -10 9 -10 6 0 13 5 16 10 3 6 -1 10 -9 10 -9 0
-16 -4 -16 -10z"/>
<path d="M1852 2740 c0 -14 2 -19 5 -12 2 6 2 18 0 25 -3 6 -5 1 -5 -13z"/>
<path d="M2436 2751 c-3 -5 1 -11 9 -14 9 -4 12 -1 8 9 -6 16 -10 17 -17 5z"/>
<path d="M2668 2738 c-21 -21 -10 -24 17 -5 10 8 14 16 9 19 -5 3 -17 -3 -26
-14z"/>
<path d="M2713 2745 c0 -8 4 -15 9 -15 4 0 8 7 8 15 0 8 -4 15 -8 15 -5 0 -9
-7 -9 -15z"/>
<path d="M2740 2750 c0 -5 5 -10 10 -10 6 0 10 5 10 10 0 6 -4 10 -10 10 -5 0
-10 -4 -10 -10z"/>
<path d="M2170 2746 c0 -2 7 -6 15 -10 8 -3 15 -1 15 4 0 6 -7 10 -15 10 -8 0
-15 -2 -15 -4z"/>
<path d="M2570 2740 c0 -5 5 -10 11 -10 5 0 7 5 4 10 -3 6 -8 10 -11 10 -2 0
-4 -4 -4 -10z"/>
<path d="M2490 2729 c0 -5 5 -7 10 -4 6 3 10 8 10 11 0 2 -4 4 -10 4 -5 0 -10
-5 -10 -11z"/>
<path d="M1765 2710 c3 -5 8 -10 11 -10 2 0 4 5 4 10 0 6 -5 10 -11 10 -5 0
-7 -4 -4 -10z"/>
<path d="M2685 2709 c-4 -6 -5 -12 -2 -15 2 -3 7 2 10 11 7 17 1 20 -8 4z"/>
<path d="M2605 2700 c-3 -6 1 -7 9 -4 18 7 21 14 7 14 -6 0 -13 -4 -16 -10z"/>
<path d="M1855 2690 c3 -5 8 -10 11 -10 2 0 4 5 4 10 0 6 -5 10 -11 10 -5 0
-7 -4 -4 -10z"/>
<path d="M2420 2686 c0 -8 4 -17 8 -20 4 -2 8 4 8 15 0 10 -4 19 -8 19 -4 0
-8 -6 -8 -14z"/>
<path d="M2634 2684 c-18 -14 -18 -14 6 -3 31 14 36 19 24 19 -6 0 -19 -7 -30
-16z"/>
<path d="M2580 2681 c0 -6 4 -13 10 -16 6 -3 7 1 4 9 -7 18 -14 21 -14 7z"/>
<path d="M2755 2660 c0 -24 3 -26 29 -23 16 1 32 6 35 9 3 3 -3 5 -14 4 -31
-3 -41 0 -28 8 9 6 8 11 -5 18 -14 9 -17 7 -17 -16z"/>
<path d="M2698 2658 c-20 -20 -22 -28 -8 -28 9 0 35 39 28 44 -2 2 -11 -6 -20
-16z"/>
<path d="M1757 2664 c-3 -4 1 -13 9 -21 19 -20 26 -13 10 9 -7 10 -16 15 -19
12z"/>
<path d="M2370 2666 c0 -2 7 -7 16 -10 8 -3 12 -2 9 4 -6 10 -25 14 -25 6z"/>
<path d="M2347 2639 c7 -7 15 -10 18 -7 3 3 -2 9 -12 12 -14 6 -15 5 -6 -5z"/>
<path d="M2630 2640 c0 -5 5 -10 10 -10 6 0 10 5 10 10 0 6 -4 10 -10 10 -5 0
-10 -4 -10 -10z"/>
<path d="M2715 2630 c-3 -5 -1 -10 4 -10 6 0 11 5 11 10 0 6 -2 10 -4 10 -3 0
-8 -4 -11 -10z"/>
<path d="M1930 2621 c0 -13 29 -35 37 -28 7 8 -15 37 -28 37 -5 0 -9 -4 -9 -9z"/>
<path d="M2560 2619 c0 -6 -7 -8 -16 -5 -14 5 -15 4 -4 -9 7 -8 10 -15 7 -15
-3 0 -1 -13 4 -30 6 -16 15 -27 21 -24 6 4 6 9 -2 14 -9 5 -11 20 -7 44 3 20
4 36 1 36 -2 0 -4 -5 -4 -11z"/>
<path d="M1744 2609 c-10 -16 18 -30 33 -17 8 6 11 13 8 17 -3 3 -10 -1 -15
-9 -9 -14 -14 -7 -11 13 2 11 -7 9 -15 -4z"/>
<path d="M2689 2607 c12 -15 9 -21 -10 -19 -3 1 -6 -13 -6 -31 l0 -31 16 32
c8 18 20 31 26 28 7 -2 18 0 26 6 11 8 11 9 -2 5 -9 -3 -27 2 -40 11 -22 15
-23 15 -10 -1z"/>
<path d="M2775 2611 c-3 -5 -1 -12 5 -16 5 -3 10 1 10 9 0 18 -6 21 -15 7z"/>
<path d="M1903 2592 c1 -12 6 -18 14 -15 16 6 13 25 -5 31 -6 2 -10 -6 -9 -16z"/>
<path d="M2645 2600 c-3 -5 -2 -10 4 -10 5 0 13 5 16 10 3 6 2 10 -4 10 -5 0
-13 -4 -16 -10z"/>
<path d="M2651 2564 c0 -11 3 -14 6 -6 3 7 2 16 -1 19 -3 4 -6 -2 -5 -13z"/>
<path d="M2745 2560 c-22 -25 -36 -26 -29 -2 5 14 4 14 -4 2 -12 -16 -7 -30
13 -30 7 0 16 -6 19 -12 4 -9 5 -8 5 2 -2 30 1 39 19 42 11 2 13 6 6 10 -6 4
-19 -1 -29 -12z"/>
<path d="M1860 2530 c-9 -6 -10 -10 -3 -10 6 0 15 5 18 10 8 12 4 12 -15 0z"/>
<path d="M2790 2521 c0 -7 -4 -10 -8 -7 -11 6 -9 -31 2 -41 4 -5 7 -3 5 2 -1
6 1 18 6 28 4 10 5 21 1 24 -3 4 -6 1 -6 -6z"/>
<path d="M2555 2510 c-3 -5 -2 -10 4 -10 5 0 13 5 16 10 3 6 2 10 -4 10 -5 0
-13 -4 -16 -10z"/>
<path d="M2667 2501 c19 -16 20 -20 7 -25 -8 -3 -12 -11 -9 -17 5 -7 14 -4 27
8 11 10 15 19 9 21 -6 2 -9 8 -6 12 3 5 0 12 -6 16 -8 4 -9 3 -5 -4 4 -7 2
-12 -3 -12 -6 0 -11 5 -11 10 0 6 -6 10 -12 10 -7 -1 -3 -9 9 -19z"/>
<path d="M1783 2495 c0 -8 4 -12 9 -9 5 3 6 10 3 15 -9 13 -12 11 -12 -6z"/>
<path d="M2159 2493 c-13 -17 -13 -17 6 -3 11 8 22 16 24 17 2 2 0 3 -6 3 -6
0 -17 -8 -24 -17z"/>
<path d="M2633 2491 c0 -11 5 -18 9 -15 4 3 5 11 1 19 -7 21 -12 19 -10 -4z"/>
<path d="M2725 2459 c-4 -6 -5 -12 -2 -15 2 -3 7 2 10 11 7 17 1 20 -8 4z"/>
<path d="M1955 2450 c-3 -6 1 -7 9 -4 18 7 21 14 7 14 -6 0 -13 -4 -16 -10z"/>
<path d="M2617 2440 c-3 -13 -1 -18 6 -13 6 4 8 0 4 -11 -4 -10 -1 -19 9 -23
8 -3 20 -19 27 -35 11 -27 13 -28 32 -13 l20 15 -20 -7 c-19 -6 -20 -6 -2 15
18 20 18 21 -2 31 -12 7 -22 7 -26 1 -11 -17 -32 1 -29 25 3 31 -12 42 -19 15z
m70 -66 c-9 -9 -28 6 -21 18 4 6 10 6 17 -1 6 -6 8 -13 4 -17z"/>
<path d="M2340 2439 c0 -5 5 -7 10 -4 6 3 10 8 10 11 0 2 -4 4 -10 4 -5 0 -10
-5 -10 -11z"/>
<path d="M2258 2433 c7 -3 16 -2 19 1 4 3 -2 6 -13 5 -11 0 -14 -3 -6 -6z"/>
<path d="M2690 2431 c0 -10 19 -25 25 -20 1 2 -3 10 -11 17 -8 7 -14 8 -14 3z"/>
<path d="M2536 2421 c-3 -5 1 -11 9 -15 8 -3 15 -1 15 4 0 13 -18 22 -24 11z"/>
<path d="M2735 2420 c-3 -5 -2 -10 4 -10 5 0 13 5 16 10 3 6 2 10 -4 10 -5 0
-13 -4 -16 -10z"/>
<path d="M2266 2407 c3 -10 9 -15 12 -12 3 3 0 11 -7 18 -10 9 -11 8 -5 -6z"/>
<path d="M2090 2406 c0 -2 7 -7 16 -10 8 -3 12 -2 9 4 -6 10 -25 14 -25 6z"/>
<path d="M2140 2396 c0 -8 7 -17 16 -20 25 -9 26 -2 4 17 -16 13 -20 14 -20 3z"/>
<path d="M1740 2390 c0 -5 5 -10 11 -10 5 0 7 5 4 10 -3 6 -8 10 -11 10 -2 0
-4 -4 -4 -10z"/>
<path d="M2545 2370 c-3 -6 1 -7 9 -4 18 7 21 14 7 14 -6 0 -13 -4 -16 -10z"/>
<path d="M2598 2373 c7 -3 16 -2 19 1 4 3 -2 6 -13 5 -11 0 -14 -3 -6 -6z"/>
<path d="M2615 2340 c-3 -5 -1 -10 4 -10 6 0 11 5 11 10 0 6 -2 10 -4 10 -3 0
-8 -4 -11 -10z"/>
<path d="M2485 2330 c-3 -5 -1 -10 4 -10 6 0 11 5 11 10 0 6 -2 10 -4 10 -3 0
-8 -4 -11 -10z"/>
<path d="M2702 2308 c1 -16 6 -28 10 -28 11 0 10 22 -2 40 -8 11 -9 9 -8 -12z"/>
<path d="M2735 2300 c-3 -5 -1 -10 4 -10 6 0 11 5 11 10 0 6 -2 10 -4 10 -3 0
-8 -4 -11 -10z"/>
<path d="M1715 2291 c-3 -5 -1 -12 5 -16 5 -3 10 1 10 9 0 18 -6 21 -15 7z"/>
<path d="M1820 2279 c-22 -18 -22 -19 -3 -10 12 6 25 16 28 21 9 15 3 12 -25
-11z"/>
<path d="M2390 2290 c0 -6 7 -10 15 -10 8 0 15 2 15 4 0 2 -7 6 -15 10 -8 3
-15 1 -15 -4z"/>
<path d="M2341 2274 c0 -11 3 -14 6 -6 3 7 2 16 -1 19 -3 4 -6 -2 -5 -13z"/>
<path d="M2155 2269 c-4 -6 -5 -12 -2 -15 2 -3 7 2 10 11 7 17 1 20 -8 4z"/>
<path d="M2446 2265 c4 -8 8 -15 10 -15 2 0 4 7 4 15 0 8 -4 15 -10 15 -5 0
-7 -7 -4 -15z"/>
<path d="M1975 2260 c-3 -6 1 -7 9 -4 18 7 21 14 7 14 -6 0 -13 -4 -16 -10z"/>
<path d="M2590 2259 c0 -5 5 -7 10 -4 6 3 10 8 10 11 0 2 -4 4 -10 4 -5 0 -10
-5 -10 -11z"/>
<path d="M2695 2238 c27 -16 45 -18 45 -6 0 6 -7 8 -15 5 -8 -4 -17 -2 -20 3
-4 6 -12 10 -18 10 -7 0 -3 -6 8 -12z"/>
<path d="M1825 2230 c-3 -6 1 -7 9 -4 18 7 21 14 7 14 -6 0 -13 -4 -16 -10z"/>
<path d="M2265 2229 c-4 -6 -5 -12 -2 -15 2 -3 7 2 10 11 7 17 1 20 -8 4z"/>
<path d="M2656 2227 c3 -10 9 -15 12 -12 3 3 0 11 -7 18 -10 9 -11 8 -5 -6z"/>
<path d="M1865 2220 c3 -5 8 -10 11 -10 2 0 4 5 4 10 0 6 -5 10 -11 10 -5 0
-7 -4 -4 -10z"/>
<path d="M2078 2218 c5 -5 16 -8 23 -6 8 3 3 7 -10 11 -17 4 -21 3 -13 -5z"/>
<path d="M2210 2226 c0 -2 7 -9 15 -16 9 -7 15 -8 15 -2 0 5 -7 12 -15 16 -8
3 -15 4 -15 2z"/>
<path d="M2687 2196 c-8 -21 26 -22 43 -1 8 9 9 15 2 15 -6 0 -14 -5 -18 -11
-5 -8 -9 -8 -14 1 -5 8 -9 7 -13 -4z"/>
<path d="M1782 2180 c0 -14 2 -19 5 -12 2 6 2 18 0 25 -3 6 -5 1 -5 -13z"/>
<path d="M2336 2192 c-3 -4 4 -9 15 -9 23 -2 25 3 4 10 -8 4 -16 3 -19 -1z"/>
<path d="M2177 2179 c7 -7 15 -10 18 -7 3 3 -2 9 -12 12 -14 6 -15 5 -6 -5z"/>
<path d="M2230 2180 c-18 -12 -2 -12 25 0 13 6 15 9 5 9 -8 0 -22 -4 -30 -9z"/>
<path d="M2471 2174 c0 -11 3 -14 6 -6 3 7 2 16 -1 19 -3 4 -6 -2 -5 -13z"/>
<path d="M2555 2179 c-4 -6 -5 -12 -2 -15 2 -3 7 2 10 11 7 17 1 20 -8 4z"/>
<path d="M2055 2169 c-11 -16 -1 -19 13 -3 7 8 8 14 3 14 -5 0 -13 -5 -16 -11z"/>
<path d="M2295 2169 c-4 -6 -5 -12 -2 -15 2 -3 7 2 10 11 7 17 1 20 -8 4z"/>
<path d="M2617 2156 c5 -22 3 -27 -7 -21 -9 5 -11 4 -6 -4 6 -9 11 -9 21 -1 8
7 19 9 25 5 5 -3 10 -1 10 4 0 6 -5 11 -11 11 -7 0 -17 8 -24 17 -11 15 -12
14 -8 -11z"/>
<path d="M2240 2143 c0 -6 8 -17 18 -24 16 -13 16 -13 2 6 -8 11 -16 22 -17
24 -2 2 -3 0 -3 -6z"/>
<path d="M2354 2132 c3 -6 -2 -13 -11 -16 -13 -3 -13 -4 3 -3 11 1 28 -4 37
-11 9 -8 21 -10 28 -6 8 5 6 10 -7 18 -11 6 -21 11 -24 11 -3 0 -11 4 -19 9
-9 6 -12 5 -7 -2z"/>
<path d="M2708 2133 c7 -3 16 -2 19 1 4 3 -2 6 -13 5 -11 0 -14 -3 -6 -6z"/>
<path d="M1834 2104 c1 -29 2 -29 15 -5 8 14 7 20 -3 24 -10 4 -13 -2 -12 -19z"/>
<path d="M2193 2096 c9 -19 15 -22 25 -13 12 9 12 12 1 15 -8 3 -19 9 -26 14
-9 7 -9 4 0 -16z"/>
<path d="M2550 2111 c0 -6 4 -13 10 -16 6 -3 7 1 4 9 -7 18 -14 21 -14 7z"/>
<path d="M2578 2113 c7 -3 16 -2 19 1 4 3 -2 6 -13 5 -11 0 -14 -3 -6 -6z"/>
<path d="M2638 2113 c7 -3 16 -2 19 1 4 3 -2 6 -13 5 -11 0 -14 -3 -6 -6z"/>
<path d="M1760 2106 c0 -2 8 -10 18 -17 15 -13 16 -12 3 4 -13 16 -21 21 -21
13z"/>
<path d="M1930 2096 c0 -2 8 -10 18 -17 15 -13 16 -12 3 4 -13 16 -21 21 -21
13z"/>
<path d="M2306 2078 c3 -4 9 -8 15 -8 5 0 9 4 9 8 0 5 -7 9 -15 9 -8 0 -12 -4
-9 -9z"/>
<path d="M2420 2074 c0 -8 5 -12 10 -9 6 4 8 11 5 16 -9 14 -15 11 -15 -7z"/>
<path d="M2140 2069 c0 -5 -4 -8 -8 -5 -4 2 -8 -4 -8 -14 0 -10 3 -17 7 -14 4
2 9 -4 12 -13 2 -10 4 -1 3 20 0 20 -1 37 -3 37 -2 0 -3 -5 -3 -11z"/>
<path d="M1945 2049 c-4 -6 -5 -12 -2 -15 2 -3 7 2 10 11 7 17 1 20 -8 4z"/>
<path d="M1986 2048 c3 -5 10 -6 15 -3 13 9 11 12 -6 12 -8 0 -12 -4 -9 -9z"/>
<path d="M2285 2050 c-3 -6 1 -7 9 -4 18 7 21 14 7 14 -6 0 -13 -4 -16 -10z"/>
<path d="M2540 2056 c0 -2 7 -6 15 -10 8 -3 15 -1 15 4 0 6 -7 10 -15 10 -8 0
-15 -2 -15 -4z"/>
<path d="M2225 2030 c-3 -5 -1 -10 4 -10 6 0 11 5 11 10 0 6 -2 10 -4 10 -3 0
-8 -4 -11 -10z"/>
<path d="M2366 2025 c-11 -8 -15 -15 -9 -15 6 0 16 7 23 15 16 19 11 19 -14 0z"/>
<path d="M2479 2027 c6 -8 7 -18 3 -22 -4 -5 -1 -5 6 -1 10 6 10 11 1 22 -6 8
-14 14 -16 14 -3 0 0 -6 6 -13z"/>
<path d="M1840 2020 c0 -5 5 -10 11 -10 5 0 7 5 4 10 -3 6 -8 10 -11 10 -2 0
-4 -4 -4 -10z"/>
<path d="M2280 2020 c-21 -7 -21 -8 -5 -9 11 0 27 4 35 9 18 11 5 11 -30 0z"/>
<path d="M1970 2013 c0 -5 5 -15 10 -23 8 -12 11 -13 22 -2 7 8 9 13 3 12 -22
-5 -29 1 -15 10 13 8 12 10 -2 10 -10 0 -18 -3 -18 -7z"/>
<path d="M2085 1990 c-3 -6 1 -7 9 -4 18 7 21 14 7 14 -6 0 -13 -4 -16 -10z"/>
<path d="M2350 1996 c0 -2 7 -9 15 -16 9 -7 15 -8 15 -2 0 5 -7 12 -15 16 -8
3 -15 4 -15 2z"/>
<path d="M2675 1989 c-4 -6 -5 -12 -2 -15 2 -3 7 2 10 11 7 17 1 20 -8 4z"/>
<path d="M2209 1982 c9 -7 10 -11 2 -15 -7 -4 -8 -5 0 -3 15 2 13 20 -3 24
-10 3 -10 2 1 -6z"/>
<path d="M1743 1973 c4 -3 -1 -12 -11 -19 -16 -12 -15 -13 5 -11 12 1 20 3 18
6 -3 2 0 10 6 18 9 10 7 13 -6 13 -10 0 -15 -3 -12 -7z"/>
<path d="M2393 1965 c-9 -25 4 -29 17 -6 7 15 7 21 0 21 -6 0 -13 -7 -17 -15z"/>
<path d="M2527 1973 c-4 -3 -7 -11 -7 -17 0 -6 5 -5 12 2 6 6 9 14 7 17 -3 3
-9 2 -12 -2z"/>
<path d="M1850 1961 c0 -5 5 -13 10 -16 6 -3 10 -2 10 4 0 5 -4 13 -10 16 -5
3 -10 2 -10 -4z"/>
<path d="M2034 1953 c-1 -10 -5 -27 -9 -38 -8 -19 -8 -19 9 -2 19 18 29 21 40
10 10 -10 37 -13 31 -3 -3 5 -1 11 4 14 5 3 12 -1 15 -10 4 -9 9 -14 13 -11 3
4 0 13 -7 22 -12 14 -15 14 -33 -2 -20 -18 -20 -17 -13 10 6 25 4 27 -22 27
-19 0 -28 -5 -28 -17z m41 -3 c-3 -5 -10 -10 -16 -10 -5 0 -9 5 -9 10 0 6 7
10 16 10 8 0 12 -4 9 -10z"/>
<path d="M2343 1956 c5 -12 1 -16 -16 -16 -17 0 -19 -2 -7 -10 9 -5 19 -5 26
0 6 6 13 7 17 4 3 -3 4 2 3 12 -2 10 -9 20 -16 22 -9 3 -11 -1 -7 -12z"/>
<path d="M2013 1945 c0 -8 4 -12 9 -9 5 3 6 10 3 15 -9 13 -12 11 -12 -6z"/>
<path d="M2160 1933 c0 -15 2 -16 10 -3 6 10 10 11 10 3 0 -7 4 -13 10 -13 5
0 7 7 4 15 -8 21 -34 19 -34 -2z"/>
<path d="M2245 1937 c-3 -7 -1 -24 5 -38 8 -19 9 -20 8 -4 -2 11 1 25 5 32 4
6 3 14 -3 18 -6 3 -13 0 -15 -8z"/>
<path d="M1780 1920 c0 -5 5 -10 11 -10 5 0 7 5 4 10 -3 6 -8 10 -11 10 -2 0
-4 -4 -4 -10z"/>
<path d="M1837 1918 c-2 -7 5 -25 16 -40 15 -20 22 -24 32 -15 13 12 9 43 -7
53 -5 3 -6 -6 -3 -23 6 -27 6 -27 -10 -8 -8 11 -13 25 -11 32 3 7 1 13 -3 13
-5 0 -11 -6 -14 -12z"/>
<path d="M2409 1913 c-13 -16 -12 -17 4 -4 9 7 17 15 17 17 0 8 -8 3 -21 -13z"/>
<path d="M1967 1905 c3 -8 9 -12 14 -9 12 7 11 11 -5 17 -10 4 -13 1 -9 -8z"/>
<path d="M2045 1901 c-3 -5 -1 -12 5 -16 5 -3 10 1 10 9 0 18 -6 21 -15 7z"/>
<path d="M2283 1895 c0 -8 4 -12 9 -9 4 3 8 9 8 15 0 5 -4 9 -8 9 -5 0 -9 -7
-9 -15z"/>
<path d="M2355 1900 c28 -12 37 -12 30 0 -3 6 -16 10 -28 9 -21 0 -21 -1 -2
-9z"/>
<path d="M1944 1892 c5 -8 0 -12 -13 -12 -12 0 -21 -4 -21 -10 0 -15 26 -12
39 4 9 11 9 16 0 22 -8 4 -9 3 -5 -4z"/>
<path d="M2645 1890 c-3 -5 -1 -10 4 -10 6 0 11 5 11 10 0 6 -2 10 -4 10 -3 0
-8 -4 -11 -10z"/>
<path d="M2010 1879 c0 -5 5 -7 10 -4 6 3 10 8 10 11 0 2 -4 4 -10 4 -5 0 -10
-5 -10 -11z"/>
<path d="M2108 1883 c7 -3 16 -2 19 1 4 3 -2 6 -13 5 -11 0 -14 -3 -6 -6z"/>
<path d="M2340 1886 c0 -2 7 -9 15 -16 9 -7 15 -8 15 -2 0 5 -7 12 -15 16 -8
3 -15 4 -15 2z"/>
<path d="M2316 1864 c-8 -21 -8 -21 7 -27 10 -4 13 2 9 19 -5 28 -8 30 -16 8z"/>
<path d="M2027 1849 c-6 -23 -20 -24 -41 -4 -21 21 -29 19 -16 -6 13 -24 -4
-53 -26 -45 -7 3 -15 2 -18 -2 -11 -18 39 -9 52 9 8 11 20 18 27 15 7 -2 16 2
19 10 3 9 10 12 16 9 6 -3 13 1 16 9 3 9 10 16 16 16 5 0 6 -4 3 -10 -3 -5 -1
-10 4 -10 6 0 11 6 11 14 0 23 -57 17 -63 -5z"/>
<path d="M2240 1866 c0 -2 7 -7 16 -10 8 -3 12 -2 9 4 -6 10 -25 14 -25 6z"/>
<path d="M2426 1861 c-3 -5 0 -11 7 -14 8 -3 14 1 14 9 0 16 -13 19 -21 5z"/>
<path d="M2180 1844 c0 -8 5 -12 10 -9 6 3 10 10 10 16 0 5 -4 9 -10 9 -5 0
-10 -7 -10 -16z"/>
<path d="M2471 1834 c0 -11 3 -14 6 -6 3 7 2 16 -1 19 -3 4 -6 -2 -5 -13z"/>
<path d="M2650 1839 c0 -5 5 -7 10 -4 6 3 10 8 10 11 0 2 -4 4 -10 4 -5 0 -10
-5 -10 -11z"/>
<path d="M2236 1832 c-2 -4 -1 -14 3 -21 6 -9 11 -10 15 -2 4 6 2 11 -4 11 -6
0 -8 5 -5 10 3 6 4 10 1 10 -3 0 -7 -4 -10 -8z"/>
<path d="M2526 1824 c-5 -14 -4 -15 9 -4 17 14 19 20 6 20 -5 0 -12 -7 -15
-16z"/>
<path d="M2569 1823 c-13 -16 -12 -17 4 -4 16 13 21 21 13 21 -2 0 -10 -8 -17
-17z"/>
<path d="M1850 1813 c0 -8 5 -11 10 -8 6 3 10 1 10 -5 0 -6 7 -19 16 -27 13
-13 13 -17 2 -24 -10 -7 -8 -9 7 -10 11 -1 23 -1 28 0 6 1 11 -14 9 -30 -2
-13 37 3 42 18 4 10 1 13 -13 8 -14 -4 -21 0 -26 14 -3 11 -14 23 -24 26 -11
3 -21 14 -24 25 -4 17 -1 19 19 14 13 -3 24 -2 24 2 0 5 -18 10 -40 10 -29 1
-40 -2 -40 -13z"/>
<path d="M2273 1812 c1 -16 5 -19 19 -11 10 5 18 15 17 22 0 9 -2 8 -6 -1 -4
-10 -8 -10 -18 -2 -11 9 -14 7 -12 -8z"/>
<path d="M2172 1811 c-11 -7 -10 -10 3 -15 22 -8 22 -8 22 9 0 17 -6 18 -25 6z"/>
<path d="M2060 1803 c0 -6 6 -13 13 -16 6 -2 9 -8 5 -12 -5 -5 -20 -3 -35 4
l-28 13 25 -24 c17 -16 29 -21 37 -15 7 5 20 6 29 3 14 -5 15 -4 5 8 -6 7 -8
22 -4 32 6 16 4 17 -8 7 -12 -10 -18 -10 -27 -1 -9 9 -12 9 -12 1z"/>
<path d="M2237 1780 c18 -19 34 -32 36 -29 2 2 -12 17 -32 33 l-36 30 32 -34z"/>
<path d="M2675 1800 c3 -5 8 -10 11 -10 2 0 4 5 4 10 0 6 -5 10 -11 10 -5 0
-7 -4 -4 -10z"/>
<path d="M2390 1790 c0 -5 5 -10 11 -10 5 0 7 5 4 10 -3 6 -8 10 -11 10 -2 0
-4 -4 -4 -10z"/>
<path d="M1963 1773 c-7 -2 -13 -12 -13 -20 0 -12 3 -13 14 -4 11 10 17 8 25
-6 6 -11 11 -13 11 -5 0 7 4 11 9 7 5 -3 13 0 17 6 4 7 3 9 -3 6 -6 -4 -16 0
-23 8 -13 16 -17 17 -37 8z"/>
<path d="M2646 1767 c3 -10 9 -15 12 -12 3 3 0 11 -7 18 -10 9 -11 8 -5 -6z"/>
<path d="M2128 1747 c-3 -6 -2 -23 2 -37 5 -21 7 -22 13 -8 3 10 1 20 -5 24
-7 4 -6 9 2 14 8 5 8 10 2 14 -5 3 -12 0 -14 -7z"/>
<path d="M1829 1733 c-12 -16 -12 -17 2 -6 9 7 20 9 24 5 5 -4 5 -1 1 6 -9 16
-11 15 -27 -5z"/>
<path d="M2040 1741 c0 -6 4 -13 10 -16 6 -3 7 1 4 9 -7 18 -14 21 -14 7z"/>
<path d="M2322 1723 c2 -9 10 -18 18 -20 12 -4 13 -3 1 5 -7 5 -10 15 -7 21 4
6 2 11 -4 11 -6 0 -10 -8 -8 -17z"/>
<path d="M2093 1722 c-7 -4 -9 -13 -4 -21 6 -9 10 -7 14 8 3 12 4 21 4 21 -1
0 -7 -4 -14 -8z"/>
<path d="M2274 1722 c3 -5 0 -13 -6 -15 -8 -3 -6 -6 5 -6 19 -1 23 14 5 25 -6
4 -8 3 -4 -4z"/>
<path d="M2440 1719 c0 -5 5 -7 10 -4 6 3 10 8 10 11 0 2 -4 4 -10 4 -5 0 -10
-5 -10 -11z"/>
<path d="M1983 1700 c1 -11 5 -20 9 -20 11 0 10 28 -1 35 -6 3 -9 -4 -8 -15z"/>
<path d="M2015 1710 c-10 -16 4 -30 22 -23 10 4 14 2 10 -4 -4 -6 0 -14 8 -17
13 -4 14 -2 5 14 -6 11 -15 20 -21 20 -6 0 -7 5 -4 10 3 6 2 10 -4 10 -5 0
-13 -4 -16 -10z"/>
<path d="M2759 1683 c-13 -16 -12 -17 4 -4 16 13 21 21 13 21 -2 0 -10 -8 -17
-17z"/>
<path d="M2276 1677 c3 -10 9 -15 12 -12 3 3 0 11 -7 18 -10 9 -11 8 -5 -6z"/>
<path d="M2430 1675 c0 -8 2 -15 4 -15 2 0 6 7 10 15 3 8 1 15 -4 15 -6 0 -10
-7 -10 -15z"/>
<path d="M2465 1670 c3 -5 8 -10 11 -10 2 0 4 5 4 10 0 6 -5 10 -11 10 -5 0
-7 -4 -4 -10z"/>
<path d="M1966 1661 c-4 -5 3 -7 14 -4 23 6 26 13 6 13 -8 0 -17 -4 -20 -9z"/>
<path d="M2230 1660 c0 -6 4 -10 9 -10 5 0 12 -8 14 -17 4 -14 5 -13 6 3 0 12
-6 24 -14 28 -8 3 -15 1 -15 -4z"/>
<path d="M2121 1637 c-1 -18 -6 -27 -13 -24 -7 2 -12 11 -10 18 2 9 0 11 -6 4
-6 -5 -12 -19 -15 -30 -3 -13 -6 -8 -7 15 l-2 35 -7 -30 c-9 -38 5 -48 41 -29
15 8 28 11 28 7 0 -5 4 -2 9 5 4 7 20 14 34 16 28 3 50 16 28 16 -7 0 -10 4
-7 8 3 5 -7 8 -21 7 -16 0 -29 -8 -33 -20 -7 -18 -8 -18 -12 5 -5 24 -5 24 -7
-3z"/>
<path d="M2223 1628 c-20 -26 -26 -41 -15 -34 12 7 36 46 29 46 -3 0 -9 -6
-14 -12z"/>
<path d="M2005 1620 c-3 -5 -2 -18 4 -27 7 -14 9 -12 8 10 -2 30 -3 31 -12 17z"/>
<path d="M2380 1621 c0 -7 -4 -9 -10 -6 -5 3 -10 1 -10 -4 0 -6 4 -11 9 -11
13 0 25 20 17 27 -3 4 -6 1 -6 -6z"/>
<path d="M2790 1610 c0 -5 5 -10 11 -10 5 0 7 5 4 10 -3 6 -8 10 -11 10 -2 0
-4 -4 -4 -10z"/>
<path d="M2337 1590 c3 -11 9 -17 15 -14 5 3 4 12 -3 20 -16 19 -18 18 -12 -6z"/>
<path d="M2169 1591 c7 -5 11 -13 8 -17 -3 -5 6 -9 19 -9 l24 0 -23 17 c-12
10 -26 18 -32 18 -5 0 -4 -4 4 -9z"/>
<path d="M2045 1559 c-5 -13 -15 -29 -24 -36 -9 -7 -11 -13 -5 -13 5 0 15 5
22 12 19 19 14 -3 -5 -24 -13 -14 -13 -18 -2 -13 20 7 43 45 28 45 -8 0 -8 4
-1 13 6 7 7 18 3 26 -7 10 -11 8 -16 -10z"/>
<path d="M2440 1571 c0 -6 4 -12 8 -15 5 -3 9 1 9 9 0 8 -4 15 -9 15 -4 0 -8
-4 -8 -9z"/>
<path d="M1995 1561 c-6 -11 13 -26 22 -17 4 3 0 6 -8 6 -11 0 -11 2 1 10 9 6
10 10 3 10 -6 0 -14 -4 -18 -9z"/>
<path d="M2086 1555 c-9 -26 -7 -32 5 -12 6 10 9 21 6 23 -2 3 -7 -2 -11 -11z"/>
<path d="M2277 1553 c-4 -3 -7 -11 -7 -17 0 -6 5 -5 12 2 6 6 9 14 7 17 -3 3
-9 2 -12 -2z"/>
<path d="M2131 1540 c0 -8 4 -24 9 -35 5 -13 9 -14 9 -5 0 8 -4 24 -9 35 -5
13 -9 14 -9 5z"/>
<path d="M2185 1540 c3 -6 0 -10 -7 -10 -8 0 -14 -9 -15 -21 -2 -21 -2 -21 17
1 14 16 25 20 37 15 17 -8 17 -8 0 -12 -9 -3 -15 -9 -12 -14 4 -5 -1 -9 -9 -9
-21 0 -29 -17 -16 -37 9 -15 10 -14 4 6 -5 19 -3 23 10 18 9 -4 20 1 25 11 6
9 11 12 11 5 0 -7 6 -10 14 -7 8 3 14 14 13 24 -1 10 -5 16 -10 13 -4 -2 -13
-1 -20 5 -19 14 -49 23 -42 12z"/>
<path d="M2495 1524 c-11 -8 -28 -13 -38 -10 -9 2 -15 0 -11 -5 9 -15 30 -10
55 11 28 23 23 26 -6 4z"/>
<path d="M2637 1525 c-6 -15 10 -32 20 -21 4 3 1 6 -5 6 -6 0 -9 7 -6 15 4 8
4 15 1 15 -3 0 -7 -7 -10 -15z"/>
<path d="M1936 1523 c5 -5 12 -12 16 -18 4 -6 8 -2 8 8 0 9 -7 17 -17 17 -9 0
-12 -3 -7 -7z"/>
<path d="M2293 1523 c-20 -7 -15 -21 10 -34 18 -9 20 -9 10 2 -24 25 -13 32
12 9 14 -13 23 -30 21 -37 -7 -18 -3 -16 18 9 17 19 17 20 1 14 -12 -4 -18 0
-22 13 -5 20 -29 31 -50 24z"/>
<path d="M2689 1513 c-13 -16 -12 -17 4 -4 16 13 21 21 13 21 -2 0 -10 -8 -17
-17z"/>
<path d="M2810 1520 c-8 -5 -10 -10 -5 -10 6 0 2 -7 -8 -14 -17 -13 -16 -15
12 -27 17 -8 32 -20 34 -29 2 -8 6 -3 9 13 4 23 3 27 -13 22 -31 -10 -40 4
-23 31 18 26 17 29 -6 14z"/>
<path d="M2095 1511 c-6 -11 13 -26 22 -17 4 3 0 6 -8 6 -11 0 -11 2 1 10 9 6
10 10 3 10 -6 0 -14 -4 -18 -9z"/>
<path d="M2560 1516 c0 -2 9 -6 20 -9 11 -3 20 -1 20 4 0 5 -9 9 -20 9 -11 0
-20 -2 -20 -4z"/>
<path d="M2450 1481 c0 -5 9 -7 20 -4 11 3 20 7 20 9 0 2 -9 4 -20 4 -11 0
-20 -4 -20 -9z"/>
<path d="M2065 1470 c3 -5 11 -10 16 -10 6 0 7 5 4 10 -3 6 -11 10 -16 10 -6
0 -7 -4 -4 -10z"/>
<path d="M2398 1473 c6 -2 9 -10 6 -15 -4 -7 -2 -8 5 -4 13 9 5 26 -12 25 -9
0 -8 -2 1 -6z"/>
<path d="M2245 1460 c-3 -6 1 -7 9 -4 18 7 21 14 7 14 -6 0 -13 -4 -16 -10z"/>
<path d="M2673 1449 c-2 -28 14 -32 19 -6 3 14 0 24 -7 24 -6 0 -12 -8 -12
-18z"/>
<path d="M2544 1447 c-8 -22 2 -47 18 -46 10 0 10 2 0 6 -9 3 -10 9 -3 17 6 7
6 17 1 26 -8 12 -10 12 -16 -3z"/>
<path d="M2745 1450 c-3 -5 -1 -10 4 -10 6 0 11 5 11 10 0 6 -2 10 -4 10 -3 0
-8 -4 -11 -10z"/>
<path d="M2150 1444 c0 -11 29 -34 34 -26 2 4 -4 13 -15 20 -10 7 -19 10 -19
6z"/>
<path d="M2200 1435 c0 -5 4 -16 9 -23 6 -11 10 -10 15 4 3 9 4 19 1 22 -3 3
-5 -1 -5 -9 0 -11 -2 -11 -10 1 -5 8 -10 11 -10 5z"/>
<path d="M2710 1429 c0 -5 5 -7 10 -4 6 3 10 8 10 11 0 2 -4 4 -10 4 -5 0 -10
-5 -10 -11z"/>
<path d="M2596 1423 c-12 -13 -5 -20 19 -20 14 0 25 1 25 3 0 8 -38 23 -44 17z"/>
<path d="M2325 1410 c-3 -5 1 -11 9 -11 25 -2 30 -4 46 -14 13 -8 13 -7 1 8
-8 10 -16 15 -19 12 -3 -3 -11 0 -18 6 -8 7 -14 7 -19 -1z"/>
<path d="M2780 1411 c0 -5 5 -13 10 -16 6 -4 10 -14 9 -23 -1 -10 -1 -24 0
-32 1 -12 4 -12 12 3 5 9 16 17 24 17 8 0 16 4 19 9 3 4 -5 6 -18 4 -19 -4
-25 0 -28 18 -3 22 -28 40 -28 20z"/>
<path d="M2867 1409 c7 -7 15 -10 18 -7 3 3 -2 9 -12 12 -14 6 -15 5 -6 -5z"/>
<path d="M2235 1400 c3 -5 8 -10 11 -10 2 0 4 5 4 10 0 6 -5 10 -11 10 -5 0
-7 -4 -4 -10z"/>
<path d="M2685 1400 c-3 -5 -16 -11 -28 -11 -17 -1 -18 -2 -5 -6 10 -2 28 3
40 11 12 9 17 16 11 16 -7 0 -15 -4 -18 -10z"/>
<path d="M2400 1395 c0 -2 6 -8 13 -14 10 -8 14 -7 14 2 0 8 -6 14 -14 14 -7
0 -13 -1 -13 -2z"/>
<path d="M2763 1388 c3 -9 1 -19 -6 -22 -7 -2 -4 -5 6 -5 20 -1 21 7 6 29 -9
13 -10 13 -6 -2z"/>
<path d="M2567 1363 c-11 -11 -8 -20 7 -20 8 0 12 6 9 14 -6 15 -7 15 -16 6z"/>
<path d="M2600 1356 c0 -3 9 -10 20 -16 11 -6 20 -8 20 -6 0 3 -9 10 -20 16
-11 6 -20 8 -20 6z"/>
<path d="M2650 1350 c0 -5 5 -10 11 -10 5 0 7 5 4 10 -3 6 -8 10 -11 10 -2 0
-4 -4 -4 -10z"/>
<path d="M2830 1335 c-11 -13 -10 -14 4 -9 9 3 16 10 16 15 0 13 -6 11 -20 -6z"/>
<path d="M3110 1389 c0 -5 5 -7 10 -4 6 3 10 8 10 11 0 2 -4 4 -10 4 -5 0 -10
-5 -10 -11z"/>
<path d="M2295 996 c-40 -17 -50 -31 -64 -96 -6 -30 -27 -91 -45 -135 -19 -44
-32 -82 -30 -84 1 -2 20 0 40 3 73 14 178 154 191 255 9 66 -24 87 -92 57z"/>
<path d="M2130 836 c-65 -96 -132 -266 -103 -266 17 0 57 81 44 89 -15 10 -2
44 14 37 7 -2 20 12 30 32 23 49 56 144 51 149 -2 3 -18 -16 -36 -41z"/>
</g>
</svg>
